<?xml version="1.0" encoding="UTF-8"?>
<svg version="1.1" xmlns="http://www.w3.org/2000/svg" width="512" height="512">
<path d="M0 0 C1.07398041 -0.00860046 2.14796082 -0.01720093 3.25448608 -0.02606201 C5.02961578 -0.03245193 5.02961578 -0.03245193 6.84060669 -0.03897095 C8.0829306 -0.04714844 9.32525452 -0.05532593 10.60522461 -0.06375122 C14.73071976 -0.08863615 18.85617824 -0.10527699 22.98171997 -0.11953735 C24.40125663 -0.12489676 25.82079322 -0.13027427 27.24032974 -0.13566971 C33.14402067 -0.15729676 39.04770885 -0.17603456 44.95142937 -0.1872921 C53.41648286 -0.20353937 61.88107793 -0.23673723 70.34595859 -0.29369295 C76.29590615 -0.33236468 82.24573094 -0.35192136 88.1958009 -0.35721266 C91.75079708 -0.36086954 95.30530432 -0.37292526 98.86016464 -0.4053154 C102.8251372 -0.44092496 106.78953199 -0.43703216 110.75466919 -0.42959595 C112.5237262 -0.45420395 112.5237262 -0.45420395 114.32852173 -0.47930908 C122.2618321 -0.41818286 122.2618321 -0.41818286 125.6612854 2.50540161 C127.20872282 5.74332002 127.42299998 7.59994191 126.92703247 11.15390015 C125.77224731 13.93270874 125.77224731 13.93270874 124.13796997 16.80233765 C123.23075195 18.41555908 123.23075195 18.41555908 122.3052063 20.06137085 C121.63778737 21.21739049 120.97005474 22.37322905 120.30203247 23.52890015 C119.61703202 24.73560854 118.93304554 25.94289304 118.25003052 27.15072632 C113.24992813 35.96449954 108.12641913 44.70822045 102.98904419 53.44247437 C99.17395047 59.94740836 95.50585243 66.51636144 91.92703247 73.15390015 C87.80115153 80.80605779 83.52352048 88.34882166 79.11453247 95.84140015 C73.39088218 105.56938409 67.86454613 115.39429161 62.40579224 125.27304077 C58.07542838 133.10468223 53.68348366 140.89727169 49.22146606 148.65463257 C46.19826157 153.91303697 43.2124376 159.19156734 40.24099731 164.4793396 C39.61725471 165.58878811 39.61725471 165.58878811 38.98091125 166.72064972 C37.96278612 168.53164014 36.94488643 170.3427573 35.92703247 172.15390015 C36.49964152 172.15536671 37.07225058 172.15683327 37.66221142 172.15834427 C51.60059888 172.19540982 65.5387401 172.25467346 79.47693157 172.33780289 C86.21738263 172.37759785 92.95771687 172.4099879 99.69827271 172.42489624 C106.20175634 172.43930109 112.70493637 172.47440712 119.20826149 172.52220917 C121.69095528 172.53706077 124.17370075 172.54494331 126.65643883 172.545784 C130.1307383 172.54814393 133.60402936 172.57514707 137.07815552 172.60800171 C138.10746185 172.60297134 139.13676819 172.59794098 140.19726562 172.59275818 C144.62858265 172.65770579 147.21067329 172.71868306 151.06001282 175.05731201 C153.12783009 177.37938781 153.64602376 178.35136128 153.65359497 181.42733765 C153.30967684 187.15228772 150.29844013 189.97335407 146.30203247 193.77890015 C144.91341237 195.17674258 143.52540513 196.57519408 142.13796997 197.97421265 C141.43124146 198.67191772 140.72451294 199.3696228 139.99636841 200.08847046 C136.88389145 203.19507205 133.90855214 206.42231478 130.92703247 209.65390015 C129.77030237 210.89555184 128.61274427 212.13643265 127.45437622 213.3765564 C126.87671509 213.99546753 126.29905396 214.61437866 125.70388794 215.25204468 C119.49033488 221.90271497 113.25874114 228.53653526 107.03152466 235.17440796 C100.32203967 242.32680892 93.61606777 249.48236469 86.92703247 256.65390015 C78.97822078 265.17608344 71.00490592 273.67521896 63.03152466 282.17440796 C56.32203967 289.32680892 49.61606777 296.48236469 42.92703247 303.65390015 C34.97822078 312.17608344 27.00490592 320.67521896 19.03152466 329.17440796 C12.32203967 336.32680892 5.61606777 343.48236469 -1.07296753 350.65390015 C-9.02177922 359.17608344 -16.99509408 367.67521896 -24.96847534 376.17440796 C-31.67796033 383.32680892 -38.38393223 390.48236469 -45.07296753 397.65390015 C-53.02177922 406.17608344 -60.99509408 414.67521896 -68.96847534 423.17440796 C-75.67796033 430.32680892 -82.38393223 437.48236469 -89.07296753 444.65390015 C-97.02177922 453.17608344 -104.99509408 461.67521896 -112.96847534 470.17440796 C-119.75852057 477.41268722 -126.54669588 484.65272146 -133.32296753 491.90390015 C-134.1820874 492.82271973 -134.1820874 492.82271973 -135.05856323 493.76010132 C-137.83194477 496.73160996 -140.5909118 499.71463058 -143.32296753 502.72421265 C-143.83053589 503.28269897 -144.33810425 503.8411853 -144.86105347 504.41659546 C-146.23145764 505.92797641 -147.59767702 507.44314884 -148.96359253 508.95858765 C-151.88457192 511.9985699 -152.62482295 512.11775945 -156.94796753 512.46640015 C-159.90265406 512.40730642 -160.96355146 512.21954979 -163.57296753 510.65390015 C-165.6973585 507.11324853 -165.71721364 504.12793105 -165.07296753 500.15390015 C-163.52616911 495.92935821 -161.49735176 491.98143342 -159.44845581 487.98080444 C-158.8426298 486.76977284 -158.23821079 485.55803652 -157.63508606 484.34565735 C-155.99797239 481.06488059 -154.34127877 477.7943568 -152.68075037 474.52538276 C-150.93509345 471.08063818 -149.20745835 467.62687613 -147.47772217 464.17411804 C-144.56417022 458.36447609 -141.63914668 452.56073875 -138.70578003 446.76107788 C-134.60224913 438.64782772 -130.51864651 430.5246792 -126.43949914 422.39914834 C-103.87776481 377.46762157 -103.87776481 377.46762157 -95.5288353 361.72006798 C-91.1456758 353.43861896 -86.96272799 345.05932696 -82.78390503 336.6734314 C-81.94640556 334.99655947 -81.10872474 333.31977811 -80.27087402 331.64308167 C-78.10244512 327.30246782 -75.93642388 322.96065721 -73.77096558 318.61856079 C-71.54631185 314.15888749 -69.31929521 309.70039446 -67.09249878 305.24179077 C-62.75038932 296.54695704 -58.41083175 287.85085252 -54.07296753 279.15390015 C-56.04827705 279.15176262 -56.04827705 279.15176262 -58.06349182 279.14958191 C-70.46781469 279.13291959 -82.87180918 279.09016905 -95.27595806 279.02180958 C-101.65324809 278.98750449 -108.03029765 278.96242405 -114.40768433 278.95834351 C-120.56112309 278.95406822 -126.71401908 278.9256685 -132.86728859 278.88046837 C-135.21601006 278.86746887 -137.56479639 278.86319431 -139.91354942 278.86774635 C-143.20125468 278.87263462 -146.48736275 278.84663635 -149.77487183 278.81332397 C-151.23467468 278.82626244 -151.23467468 278.82626244 -152.72396851 278.83946228 C-157.33145355 278.76109236 -159.41608025 278.6510485 -163.18589783 275.79795837 C-165.51342338 272.53675764 -165.70889594 271.08388715 -165.07296753 267.15390015 C-163.88644409 264.40341187 -163.88644409 264.40341187 -162.21359253 261.58358765 C-161.29175171 260.00843384 -161.29175171 260.00843384 -160.35128784 258.40145874 C-159.68194214 257.2885144 -159.01259644 256.17557007 -158.32296753 255.02890015 C-157.62754434 253.85197029 -156.93322106 252.67438987 -156.23995972 251.4961853 C-154.20047732 248.03894458 -152.13814057 244.59585521 -150.07296753 241.15390015 C-149.07272989 239.47695853 -148.07270251 237.79989148 -147.07296753 236.12265015 C-145.19533035 232.98119317 -143.3081921 229.84563599 -141.41671753 226.7124939 C-137.18456309 219.69251247 -133.00563344 212.64093239 -128.82296753 205.59140015 C-128.41421387 204.9026178 -128.00546021 204.21383545 -127.58432007 203.50418091 C-121.42904553 193.13165015 -115.27984485 182.75551979 -109.13253784 172.37826538 C-103.95166474 163.63345089 -98.76322487 154.89314703 -93.57296753 146.15390015 C-85.0637613 131.82601319 -76.56594452 117.49141446 -68.07296753 103.15390015 C-54.24788509 79.81493226 -54.24788509 79.81493226 -47.40499878 68.2906189 C-47.00886383 67.62347366 -46.61272888 66.95632843 -46.20458984 66.26896667 C-44.19013372 62.87658589 -42.17526336 59.4844518 -40.15988159 56.09262085 C-36.31939768 49.62823748 -32.48377502 43.16109394 -28.66281128 36.68515015 C-16.8529792 16.67451694 -16.8529792 16.67451694 -11.19796753 7.52890015 C-10.79892212 6.87727905 -10.39987671 6.22565796 -9.98873901 5.55429077 C-6.97625202 0.73646001 -5.5804531 0.03319107 0 0 Z " fill="#F44335" transform="translate(262.0729675292969,-0.153900146484375)"/>
</svg>
